<?xml version="1.0" encoding="UTF-8"?>
<svg id="Layer_1" xmlns="http://www.w3.org/2000/svg" viewBox="0 0 48 48">
  <defs>
    <style>
      .cls-1 {
        fill: #fff0a8;
      }

      .cls-2 {
        fill: #fff5c6;
      }

      .cls-3 {
        fill: #fff9e3;
      }

      .cls-4 {
        fill: #fee56e;
      }
    </style>
  </defs>
  <path class="cls-3" d="M35.35,27.74c-.84,0-1.68-.22-2.42-.65l-7.55-4.36c-1.5-.86-2.42-2.47-2.42-4.2v-8.72c0-1.73.93-3.34,2.42-4.2l7.55-4.36c1.5-.86,3.35-.86,4.85,0l7.55,4.36c1.5.86,2.42,2.47,2.42,4.2v8.72c0,1.73-.93,3.34-2.42,4.2l-7.55,4.36c-.75.43-1.59.65-2.42.65ZM33.97,3.07l-7.55,4.36c-.85.49-1.37,1.4-1.37,2.38v8.72c0,.98.53,1.89,1.37,2.38l7.55,4.36c.85.49,1.9.49,2.75,0l7.55-4.36c.85-.49,1.37-1.4,1.37-2.38v-8.72c0-.98-.53-1.89-1.37-2.38l-7.55-4.36c-.85-.49-1.9-.49-2.75,0h0Z"/>
  <path class="cls-2" d="M24,34.29c-.84,0-1.68-.22-2.42-.65l-7.55-4.36c-1.5-.86-2.42-2.47-2.42-4.2v-8.72c0-1.73.93-3.34,2.42-4.2l7.55-4.36c1.5-.86,3.35-.86,4.85,0l7.55,4.36c1.5.86,2.42,2.47,2.42,4.2v8.72c0,1.73-.93,3.34-2.42,4.2l-7.55,4.36c-.75.43-1.59.65-2.42.65ZM22.1,8.72l.53.91-7.55,4.36c-.85.49-1.37,1.4-1.37,2.38v8.72c0,.98.53,1.89,1.37,2.38l7.55,4.36c.85.49,1.9.49,2.75,0l7.55-4.36c.85-.49,1.37-1.4,1.37-2.38v-8.72c0-.98-.53-1.89-1.37-2.38l-7.55-4.36c-.85-.49-1.9-.49-2.75,0l-.53-.91Z"/>
  <path class="cls-1" d="M12.65,40.84c-.84,0-1.68-.22-2.42-.65l-7.55-4.36c-1.5-.86-2.42-2.47-2.42-4.2v-8.72c0-1.73.93-3.34,2.42-4.2l7.55-4.36.53.91-.53-.91c1.5-.86,3.35-.86,4.85,0l7.55,4.36c1.5.86,2.42,2.47,2.42,4.2v8.72c0,1.73-.93,3.34-2.42,4.2l-7.55,4.36c-.75.43-1.59.65-2.42.65ZM11.28,16.18l-7.55,4.36c-.85.49-1.37,1.4-1.37,2.38v8.72c0,.98.53,1.89,1.37,2.38l7.55,4.36c.85.49,1.9.49,2.75,0l7.55-4.36c.85-.49,1.37-1.4,1.37-2.38v-8.72c0-.98-.53-1.89-1.37-2.38l-7.55-4.36c-.85-.49-1.9-.49-2.75,0h0Z"/>
  <path class="cls-4" d="M24,47.39c-.84,0-1.68-.22-2.42-.65l-7.55-4.36c-1.5-.86-2.42-2.47-2.42-4.2v-8.72c0-1.73.93-3.34,2.42-4.2l7.55-4.36c1.5-.86,3.35-.86,4.85,0l7.55,4.36c1.5.86,2.42,2.47,2.42,4.2v8.72c0,1.73-.93,3.34-2.42,4.2l-7.55,4.36c-.75.43-1.59.65-2.42.65ZM24,22.36c-.48,0-.95.12-1.37.37h0s-7.55,4.36-7.55,4.36c-.85.49-1.37,1.4-1.37,2.38v8.72c0,.98.53,1.89,1.37,2.38l7.55,4.36c.85.49,1.9.49,2.75,0l7.55-4.36c.85-.49,1.37-1.4,1.37-2.38v-8.72c0-.98-.53-1.89-1.37-2.38l-7.55-4.36c-.42-.24-.9-.37-1.37-.37Z"/>
</svg>