<?xml version="1.0" encoding="UTF-8"?>
<svg id="Layer_1" xmlns="http://www.w3.org/2000/svg" viewBox="0 0 4210.64 2168.03">
  <defs>
    <style>
      .cls-1 {
        fill: #fff0a8;
      }

      .cls-2 {
        fill: #231f20;
      }

      .cls-3 {
        fill: #fff5c6;
      }

      .cls-4 {
        fill: #fff9e3;
      }

      .cls-5 {
        fill: #fee56e;
      }
    </style>
  </defs>
  <g>
    <path class="cls-4" d="M1626.32,1257.17c-38.85,0-77.69-10-112.34-30l-349.88-202c-69.29-40.01-112.34-114.56-112.34-194.57v-404.01c0-80.01,43.04-154.57,112.34-194.57L1513.99,30c69.3-40.01,155.38-40,224.67,0l349.88,202c69.29,40.01,112.34,114.56,112.34,194.57v404.01c0,80.01-43.05,154.57-112.34,194.57l-349.88,202c-34.64,20-73.49,30-112.34,30ZM1562.66,114.3l-349.88,202c-39.27,22.67-63.67,64.93-63.67,110.28v404.01c0,45.35,24.4,87.6,63.67,110.28l349.88,202c39.27,22.67,88.06,22.67,127.34,0l349.88-202c39.27-22.67,63.67-64.93,63.67-110.28v-404.01c0-45.35-24.4-87.6-63.67-110.28l-349.88-202c-39.27-22.67-88.06-22.67-127.34,0h0Z"/>
    <path class="cls-3" d="M1100.44,1560.79c-38.85,0-77.69-10-112.34-30l-349.88-202c-69.29-40-112.34-114.56-112.34-194.57v-404.01c0-80.01,43.05-154.57,112.34-194.57l349.88-202c69.29-40,155.38-40.01,224.67,0l349.88,202c69.29,40,112.34,114.56,112.34,194.57v404.01c0,80.01-43.05,154.57-112.34,194.57l-349.88,202c-34.64,20-73.49,30-112.34,30ZM1012.44,375.77l24.33,42.15-349.88,202c-39.27,22.67-63.67,64.93-63.67,110.28v404.01c0,45.35,24.4,87.6,63.67,110.28l349.88,202c39.27,22.67,88.06,22.67,127.34,0l349.88-202c39.27-22.67,63.67-64.93,63.67-110.28v-404.01c0-45.35-24.4-87.6-63.67-110.28l-349.88-202c-39.27-22.67-88.06-22.67-127.34,0l-24.33-42.15Z"/>
    <path class="cls-1" d="M574.55,1864.41c-38.85,0-77.69-10-112.34-30l-349.88-202C43.05,1592.39,0,1517.84,0,1437.83v-404.01c0-80.01,43.05-154.57,112.34-194.57l349.88-202,24.33,42.15-24.33-42.15c69.29-40,155.38-40.01,224.67,0l349.88,202c69.29,40.01,112.34,114.56,112.34,194.57v404.01c0,80.01-43.05,154.57-112.34,194.57l-349.88,202c-34.65,20-73.49,30-112.34,30ZM510.89,721.54l-349.88,202c-39.27,22.67-63.67,64.93-63.67,110.28v404.01c0,45.35,24.4,87.6,63.67,110.28l349.88,202c39.27,22.67,88.06,22.67,127.34,0l349.88-202c39.27-22.67,63.67-64.93,63.67-110.28v-404.01c0-45.35-24.4-87.6-63.67-110.28l-349.88-202c-39.28-22.68-88.07-22.67-127.34,0h0Z"/>
    <path class="cls-5" d="M1100.44,2168.03c-38.85,0-77.69-10-112.34-30l-349.88-202c-69.29-40-112.34-114.56-112.34-194.57v-404.01c0-80.01,43.05-154.57,112.34-194.57l349.88-202c69.29-40,155.38-40.01,224.67,0l349.88,202c69.29,40.01,112.34,114.56,112.34,194.57v404.01c0,80.01-43.04,154.57-112.34,194.57l-349.88,202c-34.64,20-73.5,30-112.34,30ZM1100.44,1008.15c-22.02,0-44.03,5.67-63.67,17h0s-349.88,202-349.88,202c-39.27,22.67-63.67,64.93-63.67,110.28v404.01c0,45.35,24.4,87.6,63.67,110.28l349.88,202c39.27,22.67,88.06,22.68,127.34,0l349.88-202c39.27-22.67,63.67-64.93,63.67-110.28v-404.01c0-45.35-24.4-87.6-63.67-110.28l-349.88-202c-19.64-11.34-41.65-17.01-63.67-17.01Z"/>
  </g>
  <g>
    <path class="cls-2" d="M1735.96,1935.82V602.26l308.62-47.63v1381.18h-308.62Z"/>
    <path class="cls-2" d="M2477.03,1954.87c-78.76,0-148.3-17.14-208.61-51.44-60.34-34.29-107.64-82.22-141.93-143.83-34.29-61.59-51.44-131.75-51.44-210.51v-621.06h308.62v579.14c0,54.62,16.82,98.77,50.48,132.4,33.64,33.67,77.78,50.48,132.4,50.48,39.35,0,74.3-6.96,104.78-20.95,30.48-13.96,55.87-33.64,76.2-59.06v-682.02h308.62v1007.79h-308.62v-68.58c-76.2,58.43-166.4,87.63-270.52,87.63Z"/>
    <path class="cls-2" d="M3086.65,1935.82l382.92-510.56-377.21-497.22h358.15l198.13,270.52,196.22-270.52h344.82l-371.49,493.41,392.44,514.37h-358.15l-211.46-287.66-209.56,287.66h-344.82Z"/>
  </g>
</svg>