<?xml version="1.0" encoding="UTF-8"?>
<svg id="Layer_1" data-name="Layer 1" xmlns="http://www.w3.org/2000/svg" viewBox="0 0 1607.92 1583.92">
  <defs>
    <style>
      .cls-1 {
        fill: #fff5c6;
      }

      .cls-2 {
        fill: #fee56e;
      }

      .cls-3 {
        fill: #cf2027;
      }

      .cls-4 {
        fill: #fff0a8;
      }
    </style>
  </defs>
  <path class="cls-3" d="M1188.16,918.46c-28.38,0-56.76-7.31-82.07-21.92l-255.62-147.58c-50.62-29.23-82.07-83.7-82.07-142.15v-295.16c0-58.45,31.45-112.92,82.07-142.15l255.62-147.58c50.63-29.23,113.52-29.23,164.14,0l255.62,147.58c50.62,29.23,82.07,83.7,82.07,142.15v295.16c0,58.45-31.45,112.92-82.07,142.15l-255.62,147.58c-25.31,14.61-53.69,21.92-82.07,21.92h0Z"/>
  <path class="cls-1" d="M803.96,1140.28c-28.38,0-56.76-7.31-82.07-21.92l-255.62-147.58c-50.62-29.23-82.07-83.7-82.07-142.15v-295.16c0-58.45,31.45-112.92,82.07-142.15l255.62-147.58c50.62-29.23,113.52-29.23,164.14,0l255.62,147.58c50.62,29.23,82.07,83.7,82.07,142.15v295.16c0,58.46-31.45,112.92-82.07,142.15l-255.62,147.58c-25.31,14.61-53.69,21.92-82.07,21.92ZM739.67,274.53l17.78,30.79-255.62,147.58c-28.69,16.56-46.52,47.44-46.52,80.57v295.16c0,33.13,17.82,64,46.52,80.57l255.62,147.58c28.69,16.57,64.34,16.56,93.03,0l255.62-147.58c28.69-16.56,46.52-47.44,46.52-80.57v-295.16c0-33.13-17.82-64-46.52-80.57l-255.62-147.58c-28.69-16.56-64.34-16.56-93.03,0l-17.78-30.79h0Z"/>
  <path class="cls-4" d="M419.76,1362.1c-28.38,0-56.76-7.31-82.07-21.92l-255.62-147.58C31.45,1163.37,0,1108.9,0,1050.45v-295.16C0,696.84,31.45,642.37,82.07,613.14l255.62-147.58,17.78,30.79-17.78-30.79c50.62-29.23,113.52-29.23,164.14,0l255.62,147.58c50.62,29.23,82.07,83.7,82.07,142.15v295.16c0,58.45-31.45,112.92-82.07,142.15l-255.62,147.58c-25.31,14.61-53.69,21.92-82.07,21.92ZM373.24,527.14l-255.62,147.58c-28.69,16.57-46.52,47.44-46.52,80.57v295.16c0,33.13,17.82,64,46.52,80.57l255.62,147.58c28.69,16.56,64.34,16.57,93.03,0l255.62-147.58c28.69-16.57,46.52-47.44,46.52-80.57v-295.16c0-33.13-17.82-64-46.52-80.57l-255.62-147.58c-28.7-16.57-64.34-16.56-93.03,0h0Z"/>
  <path class="cls-2" d="M803.96,1583.92c-28.38,0-56.76-7.31-82.07-21.92l-255.62-147.58c-50.62-29.23-82.07-83.7-82.07-142.15v-295.16c0-58.46,31.45-112.92,82.07-142.15l255.62-147.58c50.62-29.23,113.52-29.23,164.14,0l255.62,147.58c50.62,29.23,82.07,83.7,82.07,142.15v295.16c0,58.45-31.45,112.92-82.07,142.15l-255.62,147.58c-25.31,14.61-53.69,21.92-82.07,21.92ZM803.96,736.54c-16.08,0-32.17,4.14-46.51,12.42h0l-255.62,147.58c-28.69,16.56-46.52,47.44-46.52,80.57v295.16c0,33.13,17.82,64,46.52,80.57l255.62,147.58c28.69,16.56,64.34,16.57,93.03,0l255.62-147.58c28.69-16.56,46.51-47.44,46.51-80.57v-295.16c0-33.13-17.82-64-46.51-80.57l-255.62-147.58c-14.35-8.28-30.43-12.42-46.52-12.42h0Z"/>
</svg>